PathFileType	4	(X/Y/Z)	PS_ngait_og_ss1.trc	
DataRate	CameraRate	NumFrames	NumMarkers	Units	OrigDataRate	OrigDataStartFrame	OrigNumFrames	
120.00	120.00	4	36	mm	120.00	667	132	
Frame#	Time	Sternum			Neck			RShoulder			LShoulder			Xiphoid			Thoracic			RAsis			LAsis			RPsis			LPsis			LThighSuperior			LThighInferior			LThighLateral			LShankSuperior			LShankInferior			LShankLateral			RThighSuperior			RThighInferior			RThighLateral			RShankSuperior			RShankInferior			RShankLateral			RHeel			RToe			RMidfootLateral			RHindfoot			LHeel			LToe			LMidfootMedial			LMidfootLateral			LHindfoot			LMidfootSuperior			LToeMedial			LToeLateral			Sacral			RMidfootSuperior			
		X1	Y1	Z1	X2	Y2	Z2	X3	Y3	Z3	X4	Y4	Z4	X5	Y5	Z5	X6	Y6	Z6	X7	Y7	Z7	X8	Y8	Z8	X9	Y9	Z9	X10	Y10	Z10	X11	Y11	Z11	X12	Y12	Z12	X13	Y13	Z13	X14	Y14	Z14	X15	Y15	Z15	X16	Y16	Z16	X17	Y17	Z17	X18	Y18	Z18	X19	Y19	Z19	X20	Y20	Z20	X21	Y21	Z21	X22	Y22	Z22	X23	Y23	Z23	X24	Y24	Z24	X25	Y25	Z25	X26	Y26	Z26	X27	Y27	Z27	X28	Y28	Z28	X29	Y29	Z29	X30	Y30	Z30	X31	Y31	Z31	X32	Y32	Z32	X33	Y33	Z33	X34	Y34	Z34	X35	Y35	Z35	X36	Y36	Z36	

50	0.408	564.02893	1452.46533	145.90848	401.98627	1554.78784	143.01588	444.67966	1542.62268	306.45837	436.82901	1542.67285	6.05099	594.08673	1294.14026	157.31554	316.70511	1338.67004	154.70485	496.90540	1026.52661	298.68417	511.91083	1026.98181	23.55818	312.92706	1061.72961	209.57318	311.82202	1052.10950	104.76896	434.52521	848.12549	-24.54838	430.49463	615.65753	19.45850	514.69568	713.65503	63.93076	401.41434	377.54614	23.46407	344.06836	184.10359	60.27102	405.63852	272.31683	96.38393	522.42877	851.00201	343.00024	573.95526	619.82648	328.49884	603.18585	789.69971	276.68097	566.64691	467.18036	342.11740	553.27356	212.68411	313.14417	612.26068	337.56158	267.26468	465.98956	92.85656	264.25031	780.24719	81.82738	265.85440	681.79382	56.90686	333.33670	630.54913	57.60075	326.31494	233.14537	60.85970	111.99489	550.14362	58.05522	79.31814	453.95267	35.22410	140.96381	445.00992	32.37914	22.84859	390.36017	31.09567	36.40059	426.26697	95.87704	92.56906	496.41922	35.76311	132.82191	489.45251	41.72963	29.21060	312.37454	1056.91956	157.17107	648.60754	133.36717	277.04495 
51	0.417	573.26373	1451.76587	146.72005	410.92038	1553.90918	143.15436	453.60281	1541.75330	306.71732	445.79684	1541.86108	6.35776	602.84186	1293.05627	157.53487	325.44241	1337.89648	155.12068	505.77930	1025.22253	298.56763	519.98407	1026.29944	23.48758	321.58374	1060.92603	210.10744	320.15402	1051.48035	105.31396	441.25632	847.56500	-24.75346	435.04807	615.07886	19.24016	520.29419	712.31659	63.81865	403.83752	377.31140	23.53206	345.34335	183.89294	60.71785	407.38895	271.56308	96.68138	529.64740	849.61908	342.63828	581.15900	618.39978	327.61179	609.80530	787.23645	275.62579	578.21698	464.71008	341.67828	577.00342	209.89688	312.89456	630.47717	337.45020	267.18198	495.79904	85.70123	263.97253	810.21600	88.87041	265.99026	712.88690	59.74097	333.31161	661.67816	58.06866	326.22192	233.17609	60.84762	111.96748	550.26740	57.85758	79.25246	454.04855	35.33131	141.01147	444.99100	32.27049	22.73502	390.11554	31.58583	36.38534	426.38821	95.75339	92.57377	496.53076	35.77441	132.83055	489.51349	41.55886	29.21231	320.86890	1056.20313	157.71069	678.78888	134.50481	277.03314 
52	0.425	581.80103	1450.41406	146.81808	419.89050	1552.92468	143.29996	462.33224	1540.98242	306.96359	454.80176	1540.92786	6.76112	611.39197	1291.84119	157.69713	334.10730	1336.99316	155.64911	514.69385	1023.70227	298.56583	528.10266	1025.41211	23.61666	330.30933	1060.00793	210.74603	328.53793	1050.80151	106.02385	446.65659	846.83813	-24.40421	439.96896	614.33734	19.16720	526.09149	711.09106	63.68303	406.53583	376.80154	23.45674	345.97726	184.04103	60.68883	408.99789	271.27386	96.79936	536.34619	847.87311	342.28488	587.84277	616.60999	326.73334	617.25952	785.50476	275.55225	589.63757	462.40491	341.15305	600.69043	207.77539	312.82590	648.21680	337.65393	267.11737	525.31158	79.40176	263.44263	839.25000	96.90291	266.17487	743.12250	63.19660	333.48672	692.10516	59.26649	326.10950	233.27136	61.09827	112.04594	550.38239	57.64513	79.15159	454.07559	35.44893	141.08514	444.99948	32.25357	22.69642	390.02478	31.66921	36.36039	426.47626	95.70729	92.55901	496.63562	35.78624	132.81140	489.54047	41.43148	29.19079	329.42365	1055.40466	158.38493	708.26807	136.37239	277.00180 
53	0.433	590.50641	1449.10376	147.18475	428.83011	1551.82471	143.68073	471.14847	1540.05225	307.36853	463.77838	1539.88782	7.21080	619.96631	1290.32764	157.77927	342.79895	1336.03564	156.30257	523.66290	1022.14880	298.74173	535.45154	1024.38525	23.14900	338.85809	1059.15894	212.11646	336.48990	1050.03381	106.91180	452.17245	846.02344	-24.58765	445.00543	613.50818	18.56156	531.91956	709.59503	63.40141	409.25400	376.40192	23.51106	346.57764	184.25554	60.53129	410.81757	270.71402	96.62381	542.67175	845.68469	342.06577	594.15350	614.37769	325.98911	624.56604	783.17865	275.26489	600.61481	460.09619	340.56757	623.50104	206.30057	312.57751	665.26361	337.97076	266.87497	554.20587	74.09788	262.86496	866.96033	105.80432	266.45169	772.36841	67.38538	333.37094	721.70074	61.18092	325.78339	233.31746	61.28336	111.96037	550.48651	57.43348	79.13210	454.25568	35.54954	140.98181	443.18390	34.00550	21.58748	390.36865	31.15941	36.64852	426.59912	95.59937	92.50740	496.64944	35.43237	132.64305	489.26111	42.80220	29.15132	337.67398	1054.59644	159.51411	736.91602	138.95656	276.75690 
